<?xml version="1.0" encoding="UTF-8" standalone="no"?>
<!DOCTYPE svg PUBLIC "-//W3C//DTD SVG 1.1//EN" "http://www.w3.org/Graphics/SVG/1.1/DTD/svg11.dtd">
<svg width="100%" height="100%" viewBox="0 0 100 100" version="1.1" xmlns="http://www.w3.org/2000/svg" xmlns:xlink="http://www.w3.org/1999/xlink" xml:space="preserve" xmlns:serif="http://www.serif.com/" style="fill-rule:evenodd;clip-rule:evenodd;stroke-linejoin:round;stroke-miterlimit:2;">
    <g id="heart-regular.svg" transform="matrix(0.185474,0,0,0.185474,50,50)">
        <g transform="matrix(1,0,0,1,-256,-256)">
            <path d="M225.8,468.2L223.3,465.9L48.1,303.2C17.4,274.7 0,234.7 0,192.8L0,189.5C0,119.1 50,58.7 119.2,45.5C158.6,37.9 198.9,47 231,69.6C240,76 248.4,83.4 256,91.9C260.2,87.1 264.7,82.7 269.5,78.6C273.2,75.4 277,72.4 281,69.6C313.1,47 353.4,37.9 392.8,45.4C462,58.6 512,119.1 512,189.5L512,192.8C512,234.7 494.6,274.7 463.9,303.2L288.7,465.9L286.2,468.2C278,475.8 267.2,480.1 256,480.1C244.8,480.1 234,475.9 225.8,468.2ZM239.1,145C238.7,144.7 238.4,144.3 238.1,143.9L220.3,123.9L220.2,123.8C197.1,97.9 162.2,86.1 128.2,92.6C81.6,101.5 48,142.1 48,189.5L48,192.8C48,221.3 59.9,248.6 80.8,268L256,430.7L431.2,268C452.1,248.6 464,221.3 464,192.8L464,189.5C464,142.2 430.4,101.5 383.9,92.6C349.9,86.1 314.9,98 291.9,123.8L291.8,123.9L291.7,124L273.9,144C273.6,144.4 273.2,144.7 272.9,145.1C268.4,149.6 262.3,152.1 256,152.1C249.7,152.1 243.6,149.6 239.1,145.1L239.1,145Z" style="fill:white;fill-rule:nonzero;"/>
        </g>
    </g>
</svg>
